<svg xmlns="http://www.w3.org/2000/svg" viewBox="0 0 132 18" width="132" height="18">
  <path fill="currentColor" d="M9 18A9 9 0 0 1 9 0a9 9 0 0 1 0 18"/>
  <path fill="currentColor" d="m25.838 13.812.699-1.731h3.788l.7 1.73h2.907l-4.166-9.683h-2.614L23 13.812h2.838zm3.69-3.805h-2.194l1.104-2.72 1.09 2.72zm8.039 3.805V8.537l4.194 5.275h2.362V4.196H41.44V9.28l-4.026-5.083h-2.53v9.616h2.684zm13.015.192c2.153 0 3.397-.92 4.32-2.17l-2.041-1.429c-.587.7-1.189 1.168-2.21 1.168-1.37 0-2.334-1.127-2.334-2.569v-.027c0-1.402.965-2.555 2.335-2.555.937 0 1.58.453 2.139 1.126l2.04-1.552c-.866-1.168-2.152-1.992-4.151-1.992-2.964 0-5.145 2.198-5.145 5v.027c0 2.871 2.251 4.973 5.047 4.973zm8.206-.192v-3.654h3.481v3.654h2.712V4.196H62.27v3.6h-3.48v-3.6h-2.713v9.616h2.712zm12.861.192c3.02 0 5.285-2.239 5.285-5v-.027c0-2.761-2.237-4.973-5.257-4.973-3.02 0-5.284 2.239-5.284 5v.027c0 2.761 2.237 4.973 5.256 4.973zm.028-2.404c-1.495 0-2.516-1.209-2.516-2.596v-.027c0-1.388.993-2.57 2.488-2.57 1.496 0 2.503 1.196 2.503 2.597v.027c0 1.388-.993 2.57-2.475 2.57zm9.367 2.212V10.9h1.202l1.971 2.912h3.118L85 10.46c1.216-.508 2.013-1.483 2.013-2.967v-.027c0-.948-.293-1.676-.867-2.24-.657-.645-1.691-1.03-3.187-1.03h-4.627v9.616h2.712zm1.803-5h-1.803V6.49h1.79c.894 0 1.467.385 1.467 1.154v.028c0 .7-.545 1.14-1.454 1.14zm17.35 5-.001-2.267H94.94V10.02h4.697v-2.1H94.94V6.45h5.186V4.196h-7.87v9.616h7.94zm3.466 0 .699-1.731h3.789l.699 1.73h2.907l-4.166-9.683h-2.614l-4.152 9.684h2.838zm3.69-3.805h-2.194l1.104-2.72 1.09 2.72zm8.067 3.805V10.9h1.202l1.971 2.912h3.118l-2.335-3.352c1.216-.508 2.013-1.483 2.013-2.967v-.027c0-.948-.293-1.676-.866-2.24-.657-.645-1.692-1.03-3.188-1.03h-4.627v9.616h2.712zm1.803-5h-1.803V6.49h1.79c.894 0 1.467.385 1.467 1.154v.028c0 .7-.545 1.14-1.454 1.14zm8.22 5V8.537l4.194 5.275H132V4.196h-2.684V9.28l-4.026-5.083h-2.53v9.616h2.683z"/>
  <path class="anchor-protocol-stroke" d="M14.12 10.88a1.727 1.727 0 0 1-2.994 1.72L7.503 6.325a1.727 1.727 0 0 1 2.994-1.721l3.623 6.276z" opacity=".4"/>
  <path class="anchor-protocol-stroke" d="M6.874 12.6a1.727 1.727 0 0 1-2.994-1.72l3.623-6.276a1.727 1.727 0 0 1 2.994 1.72L6.874 12.6z" opacity=".8"/>
  <path class="anchor-protocol-stroke" d="M10.487 4.587a1.762 1.762 0 0 0-.064-.1l-.032-.046a1.706 1.706 0 0 0-.067-.084l-.043-.05c-.02-.024-.042-.045-.064-.067-.02-.02-.038-.039-.058-.057l-.06-.05-.075-.06-.056-.038c-.029-.02-.058-.04-.089-.057-.006-.004-.012-.009-.019-.012l-.042-.022a1.76 1.76 0 0 0-.33-.136 1.728 1.728 0 0 0-.744-.052 1.741 1.741 0 0 0-.564.189l-.04.02-.018.012a1.729 1.729 0 0 0-.092.06.618.618 0 0 0-.053.036c-.028.02-.054.042-.08.063-.018.015-.037.03-.054.046-.023.02-.043.041-.064.062l-.06.06-.048.059c-.02.025-.041.05-.06.076l-.04.056-.056.088a1.725 1.725 0 0 0-.012 1.74L9 8.916l1.497-2.593a1.725 1.725 0 0 0-.01-1.736"/>
</svg>
