<svg xmlns="http://www.w3.org/2000/svg" viewBox="0 0 40 40">
  <path fill="currentColor" d="M32.28 21.14a2.18 2.18 0 0 1 1.9 1.09c.79 1.41.38 3.87-1 6.26-3.06 5.07-8.5 6.41-9.25 6.56-1.04-.04-3.95-2.09-4.8-5.22a3.18 3.18 0 0 1 .55-2.76c2.65-3.72 11.37-5.74 12.6-5.92Zm-.07-1.49c-.82.08-10.59 2.13-13.76 6.56a4.58 4.58 0 0 0-.78 4.03c1 3.7 4.44 6.34 6.26 6.34h.11c.08 0 6.72-1.23 10.37-7.3 1.72-2.88 2.12-5.82 1.04-7.76a3.62 3.62 0 0 0-3.24-1.87ZM21.17 5c3.3 0 6.5 1.08 9.14 3.06l.63.52.04.04c1.23.96 1.98 3.61 1.75 6.15-.15 1.6-.63 2.35-.82 2.5a1.5 1.5 0 0 1-.34-.19l-.4-.3h-.45c-6.94 0-17.19-2.98-18.87-6.3-.26-.48-.37-1.12.37-2.13.4-.52.88-.97 1.42-1.34l.3-.18.15-.08h.04l.9-.45A16.38 16.38 0 0 1 21.16 5Zm0-1.5a16.67 16.67 0 0 0-7.75 1.95c-.23.11-.45.26-.67.37h.03c-.67.45-1.26 1-1.75 1.64-4.73 6.26 11.15 10.81 19.69 10.85.35.29.78.46 1.23.49 2.87 0 3.35-8.73-.04-11.38a16.9 16.9 0 0 0-10.74-3.91Z"/>
  <path fill="currentColor" d="M15.4 7.6c-2.17 3.29-9.44 5.6-10.67 5.23.04-.11.11-.19.15-.3.4-.81.87-1.58 1.42-2.31a18.8 18.8 0 0 1 3.8-3.77c.45-.33.93-.63 1.38-.93a5 5 0 0 1 2.42-.63c3.21.07 1.53 2.68 1.5 2.72M13.6 30.8c.15 1.04 0 5.1-.22 5.44-.19 0-.56.04-1.64-.6-.56-.33-1.12-.66-1.68-1.07-.72-.53-1.4-1.11-2.01-1.76a17.83 17.83 0 0 1-3.17-4.32 16.1 16.1 0 0 1-1.05-2.5c-.3-.87-.52-1.77-.67-2.68a16.83 16.83 0 0 1 .68-8.36c.07-.18.1-.33.18-.52 1.27 1.68 2.72 3.2 3.95 4.89 1.2 1.6 2.8 4.21 3.14 4.77 2.01 3.54 2.35 5.7 2.5 6.71Zm24.2-10.25c0 2.19-.4 4.36-1.2 6.41-2.04 2.2-15.87-3.2-16.02-3.28-1.9-.82-7.65-3.36-8.17-7.3-.74-5.71 10.81-9.7 15.92-9.85.6 0 2.46.03 3.54.9a17.42 17.42 0 0 1 5.93 13.12Zm-9.36 15.43c-1.52.71-3.17.19-2.72-1.26.82-2.84 8.06-5.7 9.66-5.9.19 0 .3.12.19.27a17.61 17.61 0 0 1-7.13 6.9Z"/>
</svg>
