<?xml version="1.0" encoding="utf-8"?>
<!-- Generator: Adobe Illustrator 25.0.0, SVG Export Plug-In . SVG Version: 6.00 Build 0)  -->
<svg version="1.1" id="Layer_1" xmlns="http://www.w3.org/2000/svg" xmlns:xlink="http://www.w3.org/1999/xlink" x="0px" y="0px"
	 viewBox="0 0 3102.2 2291.6" style="enable-background:new 0 0 3102.2 2291.6;" xml:space="preserve">
<style type="text/css">
	.st0{fill:#172852;}
	.st1{fill:#FFD83D;}
	.st2{fill:#FF6F03;}
</style>
<circle class="st0" cx="1551.1" cy="1145.8" r="1000"/>
<g>
	<path class="st1" d="M1356.6,592.7c117.1-43.8,248.9-43.9,368.2-7.9c155.3,48.2,286.4,165.4,354.9,312.5
		c18.9,41.9,37,85.6,38.8,132.2c-87.3-50.6-183-83.4-278.9-113.3c-153.4-55.3-314-93.7-459.2-169.7c-33.8-20.2-76.9-40.9-86.1-83
		C1290.6,627.1,1329.1,606.8,1356.6,592.7"/>
	<path class="st1" d="M1003.1,946.7c33.9-92,89.5-177.4,165-240.7c19.2,157.9,86.4,310.5,197.4,425.3
		c133.1,138.3,322.7,223.2,515.6,220c76.6,2.4,151.5-15.3,226.2-29.6c-73.5,265.6-364.6,441.9-634.3,399.5
		c-162.8-20.8-313.1-117.2-403.8-253.3C966.9,1317.5,941.1,1117.8,1003.1,946.7z"/>
</g>
<path class="st2" d="M1839.6,916.2c95.9,29.9,191.6,62.7,278.9,113.3l5.9,3.1c8.1,60.9,14,123,3.2,184
	c-43.9-18.6-79.5-51.3-116.7-80.2C1939.3,1076.8,1866.2,1008.6,1839.6,916.2"/>
</svg>
