<svg xmlns="http://www.w3.org/2000/svg" viewBox="0 0 32 32">
  <path fill="#27363E" d="M16 0c8.837 0 16 7.163 16 16s-7.163 16-16 16S0 24.837 0 16 7.163 0 16 0Zm0 1.684C8.094 1.684 1.684 8.094 1.684 16c0 7.906 6.41 14.316 14.316 14.316 7.906 0 14.316-6.41 14.316-14.316 0-7.906-6.41-14.316-14.316-14.316Zm0 1.123c7.286 0 13.193 5.907 13.193 13.193S23.286 29.193 16 29.193 2.807 23.286 2.807 16 8.714 2.807 16 2.807Z"/>
  <path fill="#97C554" d="M7.944 21.832c.796.806 5.155 4.647 12.018.19 4.956-3.683 4.84-11.665 4.359-14.068-.166.348-5.918 12.36-16.377 13.878ZM24.321 7.954c-.067-.016-6.431-.853-12.73 3.02-3.928 2.402-4.442 5.91-4.26 8.266 9.166-.98 16.774-11.017 16.99-11.286Z"/>
  <path fill="#709B30" d="M24.32 7.954c-.065-.016-6.43-.853-12.729 3.02-3.928 2.402-4.442 5.91-4.26 8.266 9.166-.98 16.774-11.017 16.99-11.286h-.001Z"/>
</svg>
