<svg xmlns="http://www.w3.org/2000/svg" viewBox="0 0 32 32">
  <circle cx="16" cy="16" r="16" fill="#060B2E"/>
  <path fill="#ECECEC" d="M18.332 11.961c0-3.01-1.45-5.603-2.562-6.452 0 0-.077-.047-.077.077-.093 5.82-3.041 7.41-4.678 9.524-3.75 4.909-.262 10.28 3.288 11.269 1.992.555-.463-.988-.771-4.23-.37-3.936 4.8-6.93 4.8-10.188"/>
  <path fill="#3489EE" d="M20.277 13.952c-.015-.015-.046-.015-.077 0l-.015.016c-.062.725-.865 2.3-1.868 3.735-3.412 4.878-1.467 7.225-.37 8.49.632.741 0 0 1.59-.756.123-.062 3.087-1.636 3.41-5.202.325-3.473-1.882-5.65-2.67-6.283"/>
</svg>
