<svg viewBox="0 0 24 20" fill="#5841d8" xmlns="http://www.w3.org/2000/svg">
  <path fill-rule="evenodd" clip-rule="evenodd" d="M0 12.6199v5.2357C0 18.8198.767926 19.6 1.71225 19.6c.94532 0 1.71689-.7802 1.71689-1.7444v-5.2357c0-.9655.76395-1.7471 1.71324-1.7471.94598 0 1.71325.7816 1.71325 1.7471v5.2357c0 .9642.76792 1.7444 1.71324 1.7444.94863 0 1.71623-.7802 1.71623-1.7444v-5.2357c0-.9655.7673-1.7471 1.7129-1.7471.9496 0 1.7176.7816 1.7176 1.7471v5.2357c0 .9642.7676 1.7444 1.7119 1.7444.9453 0 1.7132-.7802 1.7132-1.7444v-5.2357c0-.9655.7676-1.7471 1.7169-1.7471.9457 0 1.7133.7816 1.7133 1.7471v5.2357c0 .9642.7679 1.7444 1.7159 1.7444.9456 0 1.7132-.7802 1.7132-1.7444v-5.2357C24 5.87172 18.6262.399994 11.998.399994 5.37017.399994 0 5.87172 0 12.6199Z"/>
</svg>
