<svg viewBox="0 0 45 29" xmlns="http://www.w3.org/2000/svg">
  <path d="M30.0964 17.1392L24.8022 22.4601C24.3538 22.9109 24.3542 23.6437 24.8032 24.0939L28.8487 28.151C29.5382 28.8325 30.6655 28.8325 31.355 28.151L43.7549 15.8953C44.4443 15.2138 44.4443 14.0996 43.7549 13.4181L31.355 1.17322C30.6655 0.491741 29.5382 0.491741 28.8487 1.17322L24.8031 5.23029C24.3542 5.68054 24.3538 6.41331 24.8022 6.86407L30.0964 12.185C31.4753 13.548 31.4753 15.7762 30.0964 17.1392Z" fill="#0A6E5C"/>
  <path d="M14.1756 17.1392L19.4697 22.4601C19.9182 22.9109 19.9178 23.6437 19.4688 24.0939L15.4232 28.151C14.7337 28.8325 13.6065 28.8325 12.917 28.151L0.517117 15.8953C-0.172372 15.2138 -0.172372 14.0996 0.517117 13.4181L12.917 1.17322C13.6065 0.491741 14.7337 0.491741 15.4232 1.17322L19.4688 5.23029C19.9178 5.68054 19.9182 6.41331 19.4697 6.86407L14.1756 12.185C12.7966 13.548 12.7966 15.7762 14.1756 17.1392Z" fill="#21BF73"/>
  <path d="M15.5643 15.6745C15.0059 15.1154 15.0059 14.2088 15.5643 13.6497L21.1248 8.08146C21.6832 7.52233 22.5884 7.52233 23.1468 8.08146L28.7073 13.6497C29.2657 14.2088 29.2657 15.1154 28.7073 15.6745L23.1468 21.2428C22.5884 21.8019 21.6832 21.8019 21.1248 21.2428L15.5643 15.6745Z" fill="#21BF73"/>
</svg>
