<svg xmlns="http://www.w3.org/2000/svg" viewBox="0 0 24 24">
  <path d="M19.722 15.967c0 .373-.2.717-.524.905l-6.622 3.824a1.049 1.049 0 0 1-1.046 0l-6.624-3.824a1.046 1.046 0 0 1-.522-.905V8.318c0-.373.2-.718.522-.904L11.53 3.59a1.043 1.043 0 0 1 1.046 0l6.622 3.824c.324.186.524.53.524.904v7.649Zm1.326-9.777L12.71 1.376a1.312 1.312 0 0 0-1.314 0L3.057 6.19A1.313 1.313 0 0 0 2.4 7.328v9.629c0 .469.25.903.657 1.139l8.339 4.814c.407.234.907.234 1.314 0l8.338-4.814c.408-.236.657-.67.657-1.14V7.329c0-.47-.25-.904-.657-1.138Z"/>
  <path d="M16.1 12.164a.973.973 0 0 0-1.304-.03l-1.693 1.46a.436.436 0 0 1-.622-.053l-2.29-2.773a.973.973 0 0 0-1.367-.132L6.258 12.74a.343.343 0 0 0-.126.266v2.066c0 .288.154.555.403.699l5.115 2.952c.25.144.556.144.806 0l5.116-2.953a.802.802 0 0 0 .402-.698v-.99a.343.343 0 0 0-.107-.25l-1.768-1.668Z"/>
  <path d="M15.581 9.09a1.474 1.474 0 1 1-2.949 0 1.474 1.474 0 0 1 2.95 0"/>
</svg>
