<svg viewBox="0 0 24 24" xmlns="http://www.w3.org/2000/svg">
<path d="M21.4286 6.85714H19.7143V4.28571H17.1428V2.57143H21.4286V6.85714ZM21.4286 21.4286V17.1429H19.7143V19.7143H17.1428V21.4286H21.4286ZM2.57141 21.4286H6.85713V19.7143H4.2857V17.1429H2.57141V21.4286ZM2.57141 2.57143V6.85714H4.2857V4.28571H6.85713V2.57143L2.57141 2.57143Z" />
<path d="M11 13V18H6V13H11ZM14.5714 16.2857V18H12.8571V16.2857H14.5714ZM18 16.2857V18H16.2857V16.2857H18ZM16.2857 14.5714V16.2857H14.5714V14.5714H16.2857ZM14.5714 12.8571V14.5714H12.8571V12.8571H14.5714ZM18 12.8571V14.5714H16.2857V12.8571H18ZM11 6V11H6V6H11ZM18 6V11H13V6H18Z" />
</svg>
