<svg viewBox="0 0 24 24" xmlns="http://www.w3.org/2000/svg">
    <path d="M19.0867 7.69244C15.1728 3.83689 8.82718 3.83689 4.9133 7.69244L4.39629 8.20175C4.20059 8.39453 4.20059 8.70708 4.39629 8.89986L6.00763 10.4872C6.10547 10.5836 6.26412 10.5836 6.36196 10.4872L7.05614 9.80335C9.78657 7.11362 14.2135 7.11362 16.9439 9.80335L17.5921 10.4419C17.6899 10.5383 17.8486 10.5383 17.9464 10.4419L19.5578 8.85457C19.7535 8.6618 19.7535 8.34924 19.5578 8.15646L19.0867 7.69244ZM23.8532 12.3879L22.4191 10.9752C22.2234 10.7824 21.9062 10.7824 21.7105 10.9752L17.121 15.4963C17.0721 15.5445 16.9927 15.5445 16.9438 15.4963L12.3543 10.9751L12.3543 10.9751C12.1586 10.7823 11.8413 10.7823 11.6456 10.9751L7.05627 15.4963C7.00734 15.5445 6.92802 15.5445 6.8791 15.4963L2.28954 10.9751C2.09385 10.7823 1.77656 10.7823 1.58087 10.9751L0.146771 12.3878C-0.0489235 12.5806 -0.0489235 12.8932 0.146771 13.086L6.61339 19.4562C6.80909 19.649 7.12638 19.649 7.32207 19.4562L11.9115 14.9351C11.9604 14.8869 12.0397 14.8869 12.0886 14.9351L16.6781 19.4562C16.8738 19.649 17.1911 19.649 17.3868 19.4562L23.8532 13.086C24.0489 12.8933 24.0489 12.5807 23.8532 12.3879Z" />
</svg>
