<svg viewBox="0 0 18 18" xmlns="http://www.w3.org/2000/svg">
<path d="M15.75 13.5V14.25C15.75 15.075 15.075 15.75 14.25 15.75H3.75C2.9175 15.75 2.25 15.075 2.25 14.25V3.75C2.25 2.925 2.9175 2.25 3.75 2.25H14.25C15.075 2.25 15.75 2.925 15.75 3.75V4.5H9C8.1675 4.5 7.5 5.175 7.5 6V12C7.5 12.825 8.1675 13.5 9 13.5H15.75Z" />
<path d="M9.24994 12.7501C8.69765 12.7501 8.24994 12.3023 8.24994 11.7501V6.25006C8.24994 5.69778 8.69765 5.25006 9.24994 5.25006H16.2499C16.8022 5.25006 17.2499 5.69778 17.2499 6.25006V11.7501C17.2499 12.3023 16.8022 12.7501 16.2499 12.7501H9.24994ZM14.8231 9.25174C14.8341 9.17139 14.8396 9.08835 14.8396 8.99996C14.8396 8.91424 14.8341 8.82853 14.8204 8.74817L15.3794 8.32496C15.4289 8.28746 15.4427 8.21514 15.4124 8.16156L14.8837 7.27228C14.8506 7.21335 14.7818 7.1946 14.7212 7.21335L14.0631 7.47049C13.9254 7.36871 13.7794 7.28299 13.617 7.21871L13.5178 6.53835C13.5068 6.47406 13.4518 6.42853 13.3857 6.42853H12.3282C12.2621 6.42853 12.2098 6.47406 12.1988 6.53835L12.0997 7.21871C11.9372 7.28299 11.7885 7.37139 11.6536 7.47049L10.9954 7.21335C10.9349 7.19192 10.866 7.21335 10.833 7.27228L10.307 8.16156C10.274 8.21781 10.285 8.28746 10.34 8.32496L10.8991 8.74817C10.8853 8.82853 10.8743 8.91692 10.8743 8.99996C10.8743 9.08299 10.8798 9.17139 10.8935 9.25174L10.3345 9.67496C10.285 9.71246 10.2712 9.78478 10.3015 9.83835L10.8302 10.7276C10.8633 10.7866 10.9321 10.8053 10.9927 10.7866L11.6508 10.5294C11.7885 10.6312 11.9345 10.7169 12.0969 10.7812L12.1961 11.4616C12.2098 11.5258 12.2621 11.5714 12.3282 11.5714H13.3857C13.4518 11.5714 13.5068 11.5258 13.5151 11.4616L13.6142 10.7812C13.7767 10.7169 13.9254 10.6312 14.0603 10.5294L14.7185 10.7866C14.7791 10.808 14.8479 10.7866 14.8809 10.7276L15.4097 9.83835C15.4427 9.77942 15.4289 9.71246 15.3766 9.67496L14.8231 9.25174ZM12.857 9.96424C12.3118 9.96424 11.8657 9.53031 11.8657 8.99996C11.8657 8.4696 12.3118 8.03567 12.857 8.03567C13.4022 8.03567 13.8484 8.4696 13.8484 8.99996C13.8484 9.53031 13.4022 9.96424 12.857 9.96424Z" />
</svg>
