<svg xmlns="http://www.w3.org/2000/svg" viewBox="0 0 99 36">
  <path class="fill-primary-dark" d="M91 0a8 8 0 0 1 8 8v20a8 8 0 0 1-8 8H8a8 8 0 0 1-8-8V8a8 8 0 0 1 8-8h83Zm0 1H8a7 7 0 0 0-6.996 6.76L1 8v20a7 7 0 0 0 6.76 6.996L8 35h83a7 7 0 0 0 6.996-6.76L98 28V8a7 7 0 0 0-6.76-6.996L91 1ZM18.004 17.686a.75.75 0 0 1 .75.75 24.146 24.146 0 0 1-.546 5.513l-.126.549-.126.502c-.042.159-.084.31-.124.452a.75.75 0 0 1-.722.548c-.655 0-.807-.65-.722-.953a22.85 22.85 0 0 0 .866-6.61.75.75 0 0 1 .75-.75Zm-.027-2.554c1.78.026 3.25 1.466 3.278 3.21.025 1.59-.093 3.19-.352 4.754-.024.146-.238.721-.862.617a.75.75 0 0 1-.617-.861c.243-1.476.355-2.985.331-4.486-.015-.942-.822-1.72-1.8-1.734-1.08-.005-1.715.825-1.702 1.636a22 22 0 0 1-.45 4.782.75.75 0 1 1-1.468-.304c.3-1.458.441-2.957.418-4.455-.027-1.688 1.31-3.161 3.224-3.159Zm20.002-1.722c.71 0 1.344.129 1.9.386.556.258.988.621 1.295 1.09.27.411.42.871.455 1.38l.007.22h-2.051l-.007-.166c-.031-.376-.172-.675-.424-.897-.287-.253-.69-.38-1.21-.38-.501 0-.89.107-1.169.319a1.003 1.003 0 0 0-.417.837c0 .324.163.595.49.814.284.191.687.372 1.208.543l.23.072c1.167.35 2.017.786 2.55 1.306.533.52.8 1.166.8 1.941 0 .861-.326 1.537-.978 2.027-.651.49-1.529.735-2.632.735-.765 0-1.463-.14-2.091-.42-.63-.281-1.109-.665-1.44-1.153a2.89 2.89 0 0 1-.487-1.458L34 20.37h2.058l.005.16c.062.992.716 1.488 1.963 1.488.488 0 .869-.1 1.142-.298.273-.198.41-.475.41-.83 0-.388-.137-.685-.41-.892-.243-.185-.659-.378-1.248-.58l-.229-.077c-.71-.23-1.273-.457-1.688-.68-1.13-.61-1.695-1.433-1.695-2.468 0-.537.151-1.017.454-1.439.303-.421.738-.75 1.306-.987.567-.237 1.204-.356 1.91-.356Zm7.28.875v1.819h1.264v1.449H45.26v3.691l.004.13c.015.207.066.36.153.458.105.119.305.178.602.178.145 0 .28-.007.404-.022l.177-.026v1.497l-.234.064a4.08 4.08 0 0 1-.963.114c-1.325 0-2.029-.64-2.111-1.92l-.008-.179v-3.985h-1.08v-1.45h1.08v-1.818h1.976Zm5.38 1.682c.911 0 1.635.229 2.17.687.49.42.757.996.798 1.727l.005.204v3.206l.006.255c.021.495.095.893.22 1.195l.068.143v.116H51.91l-.064-.141a2.451 2.451 0 0 1-.134-.522c-.479.533-1.1.8-1.866.8-.725 0-1.325-.21-1.802-.63a2.023 2.023 0 0 1-.714-1.585c0-.784.29-1.386.872-1.805.532-.384 1.282-.594 2.25-.63l.269-.006h.909v-.423l-.007-.166a1.14 1.14 0 0 0-.256-.655c-.176-.205-.453-.307-.83-.307-.334 0-.594.08-.784.239a.781.781 0 0 0-.275.522l-.008.134h-1.976l.008-.181a2 2 0 0 1 .389-1.008c.264-.365.638-.65 1.12-.858a4.086 4.086 0 0 1 1.628-.311Zm15.155 0c1.012 0 1.808.319 2.39.957.535.589.824 1.405.866 2.448l.005.266v.806h-4.71l.03.177c.084.402.266.73.547.985.322.292.728.438 1.22.438.692 0 1.247-.228 1.664-.684l.12-.143.971 1.087-.133.174c-.28.337-.636.605-1.07.807a3.947 3.947 0 0 1-1.681.352c-1.085 0-1.968-.333-2.65-.998-.628-.615-.967-1.417-1.015-2.408l-.006-.252v-.19l.007-.276a4.35 4.35 0 0 1 .423-1.718 3.16 3.16 0 0 1 1.22-1.353c.527-.317 1.127-.475 1.802-.475ZM57.105 13v5.817l.383-.492 1.894-2.221h2.372l-2.673 3.083 2.905 4.313h-2.27l-1.9-2.967-.71.711V23.5H55.13V13h1.975Zm18.868.547V23.5h-2.051v-9.953h2.05Zm4.963 0 .288.007c.76.04 1.446.234 2.06.584.69.394 1.229.955 1.616 1.682.345.646.536 1.37.574 2.173l.007.305v.458l-.007.304c-.037.803-.225 1.524-.563 2.164a4.088 4.088 0 0 1-1.61 1.674 4.606 4.606 0 0 1-2.058.593l-.287.009h-3.083v-9.953h3.063Zm-62.997-.98c3.159.046 5.768 2.595 5.817 5.681a29.033 29.033 0 0 1-.184 3.746c-.033.288-.308.72-.83.66a.75.75 0 0 1-.66-.831c.134-1.173.193-2.367.174-3.551-.036-2.284-1.983-4.17-4.34-4.206a4.485 4.485 0 0 0-1.062.116.75.75 0 0 1-.346-1.46 5.59 5.59 0 0 1 1.43-.156Zm-4.476 2.056a.75.75 0 0 1 1.164.946 3.862 3.862 0 0 0-.875 2.53 19.636 19.636 0 0 1-.309 3.792l-.023.084c-.073.208-.31.615-.848.52a.75.75 0 0 1-.605-.87c.207-1.15.303-2.328.285-3.502a5.42 5.42 0 0 1 1.21-3.5Zm38.167 5.514h-.738l-.18.004c-.815.037-1.276.336-1.382.897l-.017.124-.007.116.007.12a.776.776 0 0 0 .252.489c.174.16.41.239.711.239.292 0 .56-.065.807-.195.197-.104.353-.236.468-.397l.079-.126v-1.271Zm29.306-4.929h-1.012v6.645h.991c.802 0 1.415-.263 1.839-.787.385-.476.6-1.139.642-1.988l.007-.26v-.527l-.005-.27c-.035-.88-.242-1.556-.624-2.03-.384-.479-.931-.738-1.64-.778l-.198-.005Zm-56.014.583a.747.747 0 0 1 .894.57c.146.662.178 1.213.183 1.74l-.001.521a.75.75 0 0 1-.649.737l-.101.007a.751.751 0 0 1-.75-.756c.007-.756 0-1.256-.147-1.925a.75.75 0 0 1 .57-.894ZM17.9 10a8.313 8.313 0 0 1 6.662 3.526.75.75 0 1 1-1.227.861 6.808 6.808 0 0 0-5.457-2.887c-1.76-.025-3.404.627-4.615 1.84a5.957 5.957 0 0 0-1.756 4.055l-.008 1.027a.75.75 0 0 1-.65.721l-.121.006a.75.75 0 0 1-.724-.67L10 18.38l.004-.671a7.453 7.453 0 0 1 2.198-5.429c1.5-1.5 3.517-2.305 5.698-2.278Zm47.887 7.565c-.392 0-.71.133-.954.397-.208.226-.353.537-.433.93l-.035.205h2.748v-.158l-.01-.181c-.035-.35-.15-.629-.345-.834-.228-.239-.552-.359-.97-.359Z"/>
</svg>
