<svg xmlns="http://www.w3.org/2000/svg" xml:space="preserve" viewBox="0 0 147 36">
  <path class="fill-primary-dark" d="M139 0c4.4 0 8 3.6 8 8v20c0 4.4-3.6 8-8 8H8c-4.4 0-8-3.6-8-8V8c0-4.4 3.6-8 8-8h131zm0 1H8C4.2 1 1.1 4 1 7.8V28c0 3.8 3 6.9 6.8 7H139c3.8 0 6.9-3 7-6.8V8c0-3.8-3-6.9-6.8-7h-.2zm-20.7 14.8c2.1 0 3.7 1.6 3.8 3.6v.2c0 2-1.6 3.8-3.8 3.8-2.1 0-3.6-1.6-3.7-3.6v-.2c-.1-2 1.5-3.8 3.7-3.8zm-75.2-.2c2.5 0 3.7 1.9 3.7 4.1v.6h-5.2c.2 1 .9 1.5 1.8 1.5.6 0 1.1-.2 1.7-.6l.2-.1 1.2 1.1c-.7.9-1.7 1.4-3.1 1.4-2.2 0-3.8-1.5-3.9-3.7v-.2c-.1-2.4 1.4-4.1 3.6-4.1zm61.7.3c1 0 1.8.3 2.3.8.4.4.7 1.1.7 1.9v4.6h-1v-1.1c-.5.7-1.3 1.2-2.6 1.2s-2.6-.7-2.7-2.1V21c0-1.5 1.3-2.3 3.1-2.3.8 0 1.4.1 2 .2l.2.1v-.3c0-1.3-.8-2-2.2-2-.8 0-1.4.2-2 .4l-.2.1-.3-.9c.8-.2 1.6-.4 2.7-.4zm-23.6 0c1 0 1.8.3 2.3.8.4.4.7 1.1.7 1.9v4.6h-1v-1.1c-.5.7-1.3 1.2-2.6 1.2s-2.6-.7-2.7-2.1V21c0-1.5 1.3-2.3 3.1-2.3.8 0 1.4.1 2 .2l.2.1v-.3c0-1.3-.8-2-2.2-2-.8 0-1.4.2-2 .4l-.2.1-.3-.9c.9-.2 1.7-.4 2.7-.4zM99.9 13v10.2h-1.1v-1.5c-.6.9-1.4 1.6-2.8 1.6-1.7 0-3.3-1.3-3.5-3.5v-.3c0-2.4 1.7-3.8 3.5-3.8 1.3 0 2.1.6 2.7 1.4l.1.1V13h1.1zm-38 2.6c1.2 0 2 .3 2.5.8s.8 1.3.8 2.2v4.6h-2.1v-.8c-.5.6-1.2 1-2.3 1-1.4 0-2.5-.7-2.6-2.1v-.2c0-1.6 1.2-2.4 3-2.4.7 0 1.2.1 1.6.2l.2.1v-.1c0-.9-.5-1.4-1.6-1.4-.7 0-1.2.1-1.8.3l-.3.1-.3-1.7c.8-.3 1.6-.6 2.9-.6zm69.3.3c.8 0 1.7.3 2.4.7l.2.1-.5.8c-.7-.4-1.4-.7-2.1-.7-.8 0-1.3.4-1.4.9v.1c0 .5.5.8 1.2 1l.3.1.6.2.3.1c.9.3 1.7.8 1.7 1.7v.2c0 1.4-1.1 2.2-2.6 2.2-1 0-2-.3-2.8-.9l-.2-.1.5-.8c.8.6 1.7.9 2.5.9s1.4-.4 1.5-1v-.1c0-.6-.6-.9-1.3-1.1l-.9-.3c-.9-.3-1.9-.7-1.9-1.7V18c.1-1.3 1.1-2.1 2.5-2.1zm-20-2.1V16h2.3v1h-2.3v4.2c0 .9.5 1.2 1.2 1.2.3 0 .6 0 .9-.2l.2-.1v.9c-.4.2-.8.3-1.3.3-1.1 0-2-.5-2-1.9v-4.6h-1v-1h1v-2.2h1zm-41.4-.4 3.5 8.4 3.5-8.4H78l-4.2 9.9h-1l-4.2-9.9h1.2zm-11.9 2.2h.2v2.2H58c-1.4 0-2.2.8-2.3 2.4v3h-2.1v-7.5h2.1v1.5c.4-1 1.1-1.6 2.2-1.6zm32.9.4v7.2h-1.1V16h1.1zm-50.7-2.6v2h-3v7.8H35v-7.8h-3v-2h8.1zm12.3 2.2h.2v2.2h-.1c-1.4 0-2.2.8-2.3 2.4v3h-2.1v-7.5h2.1v1.5c.4-1 1-1.6 2.2-1.6zM87.5 13v10.2h-1.1V13h1.1zm40 2.9h.2V17h-.1c-1.5 0-2.8 1.1-2.9 3.1v3.1h-1.1V16h1.1v1.9c.5-1.2 1.5-2 2.8-2zm-46.4 3.7c-1.3 0-2 .5-2.1 1.4v.2c0 .9.8 1.4 1.8 1.4 1.3 0 2.3-.7 2.4-1.8V20c-.5-.3-1.2-.4-2.1-.4zm23.6 0c-1.3 0-2 .5-2.1 1.4v.2c0 .9.8 1.4 1.8 1.4 1.3 0 2.3-.7 2.4-1.8V20c-.5-.3-1.2-.4-2.1-.4zm13.5-2.8c-1.5 0-2.6 1.2-2.6 2.6v.2c0 1.6 1.1 2.8 2.7 2.8 1.5 0 2.6-1.2 2.7-2.6v-.2c-.1-1.5-1.2-2.8-2.8-2.8zm-21.9 0c-1.3 0-2.5 1-2.5 2.6v.2c0 1.7 1.2 2.8 2.5 2.8s2.5-1.1 2.6-2.6v-.2c0-1.7-1.3-2.8-2.6-2.8zm-34.4 3.1c-.9 0-1.4.3-1.5.9v.2c0 .6.5.9 1.2.9.9 0 1.6-.5 1.7-1.2v-.5c-.4-.2-.9-.3-1.4-.3zm-18.8-2.6c-.8 0-1.4.6-1.6 1.4v.2h3.2c-.1-1-.7-1.6-1.6-1.6zm47.8-4.1v1.2h-1.2v-1.2h1.2z"/>
  <path class="fill-primary-dark" d="M24 12c0-1.1-.7-1.6-1.6-1.2l-7.8 3.9c-.9.4-1.6 1.7-1.6 2.8v9.4c0 1.1.7 1.6 1.6 1.2l7.8-3.9c.9-.4 1.6-1.7 1.6-2.8V12z"/>
  <path class="fill-primary-light" d="m13.5 28.1-1.9-1c-.4-.2-.6-.6-.6-1.2v-9.4c0-1.1.7-2.4 1.6-2.8l7.8-3.9c.3-.2.7-.2 1-.1l2 1c-.3-.2-.7-.1-1 0l-7.8 3.9c-.9.4-1.6 1.7-1.6 2.8v9.4c0 .6.2 1.1.5 1.3z"/>
  <path class="fill-primary-light" fill-opacity=".2" d="M23 10.6c.6 0 1 .5 1 1.4v.2L18.4 23l-3.8-3.5 1.2-2.3 2.6 2.4 4.6-9z"/>
  <path class="fill-primary-light" d="m17.5 18.1-1.1-.6-1.2 2.3 3.8 3.5 1.1.6-3.8-3.5zM24.7 9l-5.5 10.6.9.9 5.7-10.9z"/>
  <path class="fill-primary-light" d="m20.1 20.5 5.7-10.9 1.2 1.1-6.9 13.2-3.8-3.5 1.2-2.3z"/>
</svg>
