<svg width="14" height="8" viewBox="0 0 14 8" fill="none" xmlns="http://www.w3.org/2000/svg">
<path fill-rule="evenodd" clip-rule="evenodd" d="M8.60011 1.6C8.15828 1.6 7.80011 1.24183 7.80011 0.8C7.80011 0.358172 8.15828 0 8.60011 0H12.6001C13.0419 0 13.4001 0.358172 13.4001 0.8V4.8C13.4001 5.24183 13.0419 5.6 12.6001 5.6C12.1583 5.6 11.8001 5.24183 11.8001 4.8V2.73137L8.36579 6.16569C8.05337 6.47811 7.54684 6.47811 7.23442 6.16569L5.4001 4.33137L1.96578 7.76569C1.65336 8.0781 1.14683 8.0781 0.834412 7.76569C0.521993 7.45327 0.521993 6.94673 0.834412 6.63432L4.83442 2.63431C5.14684 2.3219 5.65337 2.3219 5.96579 2.63431L7.80011 4.46863L10.6687 1.6H8.60011Z" fill="var(--info)"/>
</svg>
