<svg width="14" height="8" viewBox="0 0 14 8" fill="none" xmlns="http://www.w3.org/2000/svg">
<path fill-rule="evenodd" clip-rule="evenodd" d="M8.60011 6.4C8.15828 6.4 7.80011 6.75817 7.80011 7.2C7.80011 7.64183 8.15828 8 8.60011 8H12.6001C13.0419 8 13.4001 7.64183 13.4001 7.2V3.2C13.4001 2.75817 13.0419 2.4 12.6001 2.4C12.1583 2.4 11.8001 2.75817 11.8001 3.2V5.26863L8.36579 1.83431C8.05337 1.52189 7.54684 1.52189 7.23442 1.83431L5.4001 3.66863L1.96578 0.234314C1.65336 -0.078105 1.14683 -0.078105 0.834412 0.234314C0.521993 0.546734 0.521993 1.05327 0.834412 1.36568L4.83442 5.36569C5.14684 5.6781 5.65337 5.6781 5.96579 5.36569L7.80011 3.53137L10.6687 6.4H8.60011Z" fill="var(--danger)"/>
</svg>
