<svg viewBox="0 0 24 24" xmlns="http://www.w3.org/2000/svg">
<path d="M11 11H3V3H11V11ZM9 5H5V9H9V5Z"/>
<path d="M11 21H3V13H11V21ZM9 15H5V19H9V15Z"/>
<path d="M13 11V3H21V11H13ZM15 9H19V5H15V9Z"/>
<rect x="19" y="19" width="2" height="2"/>
<rect x="13" y="13" width="2" height="2"/>
<rect x="15" y="15" width="2" height="2"/>
<rect x="13" y="17" width="2" height="2"/>
<rect x="15" y="19" width="2" height="2"/>
<rect x="17" y="17" width="2" height="2"/>
<rect x="17" y="13" width="2" height="2"/>
<rect x="19" y="15" width="2" height="2"/>
</svg>
