<svg width="62" height="62" viewBox="0 0 62 62" fill="none" xmlns="http://www.w3.org/2000/svg">
<path fill-rule="evenodd" clip-rule="evenodd" d="M39.885 13.1259C41.3982 11.6247 43.8518 11.6247 45.365 13.1259L60.865 28.5019C62.3783 30.0031 62.3783 32.4369 60.865 33.9381L45.365 49.3141C43.8518 50.8153 41.3982 50.8153 39.885 49.3141C38.3717 47.8129 38.3717 45.3791 39.885 43.8779L48.7699 35.064L3.875 35.064C1.7349 35.064 3.31966e-07 33.343 2.38419e-07 31.22C1.44873e-07 29.097 1.7349 27.376 3.875 27.376L48.7699 27.376L39.885 18.5621C38.3717 17.0609 38.3717 14.6271 39.885 13.1259Z" fill="white"/>
</svg>
