<svg xmlns="http://www.w3.org/2000/svg" viewBox="0 0 24 24">
  <path d="M12 2C6.2 2 1.5 6.7 1.5 12.5c0 4.6 3 8.5 7.2 9.9.5.1.7-.2.7-.5V20c-2.9.6-3.5-1.2-3.5-1.2-.5-1.2-1.2-1.5-1.2-1.5-.9-.6.1-.6.1-.6 1.1.1 1.6 1.1 1.6 1.1.9 1.6 2.4 1.1 3 .9.1-.7.4-1.1.7-1.4-2.3-.3-4.8-1.2-4.8-5.2 0-1.1.4-2.1 1.1-2.8-.1-.5-.5-1.5.1-3 0 0 .9-.3 2.9 1.1.8-.2 1.7-.3 2.6-.4.9 0 1.8.1 2.6.4 2-1.4 2.9-1.1 2.9-1.1.6 1.4.2 2.5.1 2.8.7.7 1.1 1.7 1.1 2.8 0 4-2.4 4.9-4.8 5.2.4.3.7 1 .7 1.9v2.9c0 .3.2.6.7.5 4.2-1.4 7.1-5.3 7.1-9.9C22.4 6.7 17.7 2 12 2"/>
</svg>
